<svg width="49" height="48" fill="none" xmlns="http://www.w3.org/2000/svg">
    <g clip-path="url(#a)">
        <path d="M48.774 24c0 13.247-10.925 24-24.387 24S0 37.247 0 24 10.925 0 24.387 0s24.387 10.753 24.387 24Z" fill="#0054F0" />
        <path d="M21.247 17.505c-.043.13.043.258.172.258l2.065-.043s-2.796 11.183-3.355 13.463c-.688 2.839-1.85 5.72-2.667 6.752-.73.904-1.204 1.205-1.72 1.205-.688 0-1.032-.516-1.247-1.334-.13-.602-.516-1.419-1.377-1.419-.903 0-2.107.99-2.107 2.237 0 1.634 2.752 2.021 3.656 2.021 1.806 0 4.172-1.161 5.72-2.968 2.022-2.28 3.14-5.118 4.172-9.118l2.538-10.882 2.666.043c.215 0 .301-.172.345-.258l.344-.989c.043-.129-.043-.258-.172-.258h-2.753c.645-2.322 1.634-5.72 3.527-7.57.172-.172.645-.559 1.075-.559.731 0 .946.43 1.29 1.118.301.688.258 1.85 1.29 1.85 1.205 0 2.108-1.334 2.108-2.237 0-1.247-2.15-2.064-3.914-2.064-2.021 0-4 .86-5.42 2.28-2.02 2.064-2.967 5.117-3.612 7.225l-2.065-.043c-.129 0-.258.13-.3.215l-.259 1.075Zm10.71 11.355c-.043.56-.344 2.065-2.021 2.065-.99 0-1.721-.645-1.635-1.807.043-1.161.86-2.107 2.022-2.15.774.043 1.72.559 1.634 1.892Zm5.978 0c-.043.56-.344 2.065-2.021 2.065-.99 0-1.72-.645-1.634-1.807.043-1.161.86-2.107 2.021-2.15.731.043 1.677.559 1.634 1.892Zm5.936 0c-.043.56-.344 2.065-2.022 2.065-.989 0-1.72-.645-1.634-1.807.043-1.161.86-2.107 2.021-2.15.775.043 1.678.559 1.635 1.892ZM18.28 8.731c-1.248.043-2.108 1.032-2.194 2.28-.086 1.204.645 1.892 1.72 1.892 1.807 0 2.194-1.634 2.194-2.236.086-1.377-.86-1.936-1.72-1.936Z" fill="#fff" />
        <path d="m15.312 24.688 1.892-4.602c.387-.903.86-2.107.86-2.925 0-1.032-.774-1.29-1.333-1.29-2.58 0-5.333 3.01-6.365 4.215-.086.086-.13.258.043.387l.473.473a.227.227 0 0 0 .344-.043s1.247-1.376 1.72-1.72c.13-.086.301-.215.43-.215.172 0 .258.258.258.387 0 .43-.43 1.462-.645 1.978l-1.978 5.033c-.688 1.677-1.032 2.58-1.032 3.311 0 .86.473 1.549 1.677 1.549 2.753 0 6.193-4.13 6.193-4.13.13-.171.087-.3 0-.386l-.516-.473a.271.271 0 0 0-.387 0s-1.85 2.064-2.494 2.064c-.301 0-.258-.344-.258-.387 0-.301.172-.86.3-1.118l.818-2.108Z" fill="#fff" />
    </g>
    <defs>
        <clipPath id="a">
            <path fill="#fff" d="M0 0h48.774v48H0z" />
        </clipPath>
    </defs>
</svg>